HIERARCHY
ROOT Hips
{
     OFFSET 1.88212 96.90440 -13.34250
     CHANNELS 6 Xposition Yposition Zposition Zrotation Xrotation Yrotation
     JOINT Spine
     {
          OFFSET 0.00000 11.89050 0.00000
          CHANNELS 3 Zrotation Xrotation Yrotation
          JOINT Spine1
          {
               OFFSET -0.00000 25.65740 0.12766
               CHANNELS 3 Zrotation Xrotation Yrotation
               JOINT HEad
               {
                    OFFSET 0.00000 8.73416 0.01134
                    CHANNELS 3 Zrotation Xrotation Yrotation
                    End Site
                    {
                         OFFSET -0.29000 12.77420 2.51395
                    }
               }
               JOINT LeftShoulder1
               {
                    OFFSET 8.99000 -0.36225 -0.22000
                    CHANNELS 3 Zrotation Xrotation Yrotation
                    JOINT LeftArm
                    {
                         OFFSET 10.28270 -0.00338 0.32212
                         CHANNELS 3 Zrotation Xrotation Yrotation
                         JOINT LeftForeArm
                         {
                              OFFSET 32.76690 0.09914 -1.42434
                              CHANNELS 3 Zrotation Xrotation Yrotation
                              JOINT LeftHand
                              {
                                   OFFSET 27.56430 0.08536 1.02216
                                   CHANNELS 3 Zrotation Xrotation Yrotation
                                   End Site
                                   {
                                        OFFSET 16.74430 -0.60000 1.50291
                                   }
                              }
                         }
                    }
               }
               JOINT RightShoulder
               {
                    OFFSET -8.99000 -0.36225 -0.22000
                    CHANNELS 3 Zrotation Xrotation Yrotation
                    JOINT RightArm
                    {
                         OFFSET -10.28270 -0.00338 0.32212
                         CHANNELS 3 Zrotation Xrotation Yrotation
                         JOINT RightForeArm
                         {
                              OFFSET -32.89710 0.09914 -1.42434
                              CHANNELS 3 Zrotation Xrotation Yrotation
                              JOINT RightHand
                              {
                                   OFFSET -27.49210 0.08536 1.02216
                                   CHANNELS 3 Zrotation Xrotation Yrotation
                                   End Site
                                   {
                                        OFFSET -16.63120 -0.60000 1.50291
                                   }
                              }
                         }
                    }
               }
          }
     }
     JOINT LeftUpLeg
     {
          OFFSET 8.94580 -8.66707 0.10165
          CHANNELS 3 Zrotation Xrotation Yrotation
          JOINT LeftLeg
          {
               OFFSET 0.00000 -44.42270 1.37270
               CHANNELS 3 Zrotation Xrotation Yrotation
               JOINT LeftFoot
               {
                    OFFSET -0.25355 -42.09240 -1.46059
                    CHANNELS 3 Zrotation Xrotation Yrotation
                    JOINT LeftToes
                    {
                         OFFSET -0.04000 -4.41509 8.49910
                         CHANNELS 3 Zrotation Xrotation Yrotation
                         End Site
                         {
                              OFFSET 0.08000 -0.04745 9.77979
                         }
                    }
               }
          }
     }
     JOINT RightUpLeg
     {
          OFFSET -8.94580 -8.66707 0.10165
          CHANNELS 3 Zrotation Xrotation Yrotation
          JOINT RightLeg
          {
               OFFSET 0.00000 -44.42270 1.37270
               CHANNELS 3 Zrotation Xrotation Yrotation
               JOINT RightFoot
               {
                    OFFSET 0.25355 -42.09240 -1.46059
                    CHANNELS 3 Zrotation Xrotation Yrotation
                    JOINT RightToes
                    {
                         OFFSET 0.04000 -4.41509 8.49910
                         CHANNELS 3 Zrotation Xrotation Yrotation
                         End Site
                         {
                              OFFSET -0.08000 -0.13745 9.77979
                         }
                    }
               }
          }
     }
}
MOTION
Frames: 20
Frame Time: 0.01667
95.50967 95.12222 -63.60392 -4.30991 -11.73635 10.75647 -0.95688 21.73121 -0.96397 0.00148 -0.00001 -0.00245 5.83907 -3.16527 3.60622 3.93404 7.14362 -5.22942 -87.60651 -45.35901 -85.61849 -28.37259 28.25642 -75.71143 13.07300 9.82397 -10.05624 21.84219 6.62497 -5.76600 89.37984 -15.44586 78.72543 16.49693 35.50950 100.53836 18.34076 10.64359 8.24132 11.49555 -7.10251 -4.19568 -13.61220 10.00361 41.90114 -4.87234 0.00064 0.00350 7.76986 -15.96704 -63.55175 -23.98450 7.73718 20.12441 43.31294 15.51046 -51.60612 -27.34106 -0.00079 0.01535 12.11936 -45.76537 13.46716 
95.42905 94.98456 -63.65213 -4.06688 -11.53465 10.71023 -1.19567 21.76488 -0.87683 0.00443 0.00287 -0.00467 5.60266 -3.16122 3.78164 4.16976 6.83298 -5.28221 -95.62259 -49.58480 -87.99034 -30.98279 34.49920 -75.87975 13.65556 10.14893 -9.72852 21.59098 6.52286 -5.17578 89.25417 -14.77129 78.58717 16.35857 35.44800 100.33237 18.19603 10.12849 8.60629 12.97119 -7.79277 -5.81913 -14.16005 10.51042 42.84059 -6.39212 -0.00903 0.02197 8.06733 -16.22157 -60.54773 -23.59261 9.03164 19.82657 41.77856 10.96821 -51.13470 -29.62297 -0.02569 0.04272 12.14240 -42.31774 15.41222 
95.22185 94.87129 -63.73263 -3.66632 -11.29914 10.66611 -1.51316 21.77575 -0.80460 0.00704 0.00163 -0.00385 5.05014 -2.79920 5.58129 4.14712 6.62503 -4.97355 -101.41138 -51.78790 -90.55073 -32.09290 38.23895 -75.53172 13.83032 9.95823 -9.63690 20.96084 6.55256 -4.60842 88.15131 -9.83286 77.96233 12.16190 33.30471 101.07401 18.19648 10.05095 8.63937 15.18005 -8.59519 -8.04647 -15.97921 10.80179 45.25172 -7.22429 0.00065 0.01822 11.60183 -19.95260 -41.80441 -23.41325 10.73885 19.48445 40.54923 5.52865 -50.64133 -32.79812 -0.05299 0.05240 13.92989 -41.93757 17.58117 
94.90736 94.80297 -63.83946 -3.14450 -11.05612 10.66684 -1.88496 21.77415 -0.74244 0.00444 0.00226 -0.00094 4.25907 -2.22232 8.75501 3.93625 6.46334 -4.18125 -104.95053 -52.75280 -92.44949 -32.55878 40.08880 -75.05605 14.02550 9.88960 -9.52827 20.16158 6.62954 -3.83329 87.58385 -6.94892 77.69016 10.19023 31.71254 101.30231 18.32442 9.91472 8.75259 17.14046 -9.45105 -10.11542 -17.92005 11.10733 48.18327 -8.13626 0.00464 0.01707 10.02635 -17.73202 -48.29206 -23.31858 12.64249 19.07033 38.58109 1.89974 -49.89991 -30.17109 0.03653 -0.03226 10.96442 -40.54286 19.52430 
94.53171 94.78802 -63.94934 -2.52555 -10.83529 10.75425 -2.28291 21.76922 -0.69352 0.00057 0.00377 0.00148 3.27590 -1.55527 13.08737 3.64568 6.31624 -3.01274 -106.53368 -52.90192 -93.34166 -32.67148 40.54582 -74.56803 13.99129 9.80035 -9.46089 19.32032 6.71438 -2.93629 87.34460 -5.31236 77.58891 9.40952 30.66515 101.23503 18.55225 10.03451 8.64492 18.81936 -10.32032 -12.06950 -19.39429 11.97083 55.51763 -5.37271 -0.12853 0.07041 5.03010 -17.80672 -48.71951 -23.22407 14.53328 18.56225 36.58696 -0.97467 -49.20221 -26.92050 0.04015 -0.03862 8.05918 -40.08520 21.03025 
94.13316 94.81705 -64.03887 -1.82686 -10.66104 10.96156 -2.68268 21.76577 -0.66155 -0.00334 0.00514 0.00330 2.29579 -0.96369 16.97951 3.30590 6.18396 -1.61790 -106.54282 -52.41581 -93.20261 -32.41671 39.95636 -74.11974 14.00948 9.94131 -9.49632 18.47631 6.79929 -1.99165 87.33767 -4.39342 77.56170 9.20337 30.10461 100.99246 18.68511 10.11427 8.69705 20.19485 -11.14800 -13.94075 -21.26126 12.61148 61.43161 -8.81114 0.11055 -0.01170 6.48719 -16.93486 -52.64415 -23.08302 16.26858 17.95012 34.66711 -3.30857 -48.61163 -23.32030 0.03391 -0.03819 4.69997 -39.32323 22.26241 
93.75112 94.87178 -64.08800 -1.07079 -10.54022 11.30871 -3.02007 21.38676 -0.44701 -0.00656 0.01026 0.00214 1.30544 -0.05807 20.20127 2.63629 6.44582 -0.81058 -105.30503 -51.97527 -92.32338 -31.46211 38.89698 -74.25376 13.88972 9.88904 -9.64251 17.60658 7.17224 -1.38912 87.52478 -3.86595 77.57792 9.25673 29.93332 100.62546 18.75372 10.33576 8.66648 21.28994 -11.87893 -15.73796 -23.23306 13.01413 66.27096 -8.45541 -0.00014 -0.01791 5.25371 -16.43546 -53.18630 -22.87910 17.77060 17.23605 32.86642 -5.16702 -48.14887 -19.49252 0.02571 -0.03774 1.23858 -38.77902 23.28057 
93.38717 94.90660 -64.11444 -0.26613 -10.48631 11.80740 -3.31615 20.76877 -0.05750 -0.00944 0.01614 0.00140 0.36112 1.08002 22.79177 2.47046 6.94839 -0.61570 -103.87821 -50.80461 -91.44972 -29.88692 37.00568 -74.24059 13.69262 10.07528 -9.59001 16.67731 7.73924 -0.99098 87.93842 -3.56843 77.69443 9.35540 30.04455 100.07056 18.67788 10.53183 8.76935 22.11921 -12.47630 -17.46724 -25.21643 13.18637 70.24863 -9.47228 0.02448 -0.01113 5.67127 -15.96919 -54.53860 -22.63323 19.02475 16.44344 31.21697 -6.56221 -47.80514 -15.49263 0.01620 -0.03613 -2.45772 -38.20848 24.11806 
93.01855 94.87607 -64.15286 0.58670 -10.51122 12.46205 -3.58112 20.02159 0.49961 -0.01253 0.02113 0.00075 -0.50264 2.38583 24.78632 2.68533 7.61243 -0.75239 -102.35758 -48.46762 -90.72281 -22.81802 32.45625 -73.81271 10.58751 6.68042 -11.24464 15.71777 8.43061 -0.75032 88.53620 -3.36820 77.97098 9.39898 30.33895 99.25807 18.50007 10.80871 8.84509 22.71636 -12.92847 -19.12708 -27.08459 13.17657 73.49722 -9.48519 0.00325 -0.00879 5.43071 -15.73136 -54.96110 -22.38591 20.04889 15.60789 29.75648 -7.50558 -47.55706 -11.36179 0.00579 -0.03231 -6.29991 -37.79653 24.78502 
92.55447 94.79576 -64.26057 1.72260 -11.21555 13.49594 -3.36281 19.52382 0.51668 0.01801 -0.02199 -0.00482 -1.44258 4.45503 26.47575 5.29533 5.14982 -1.13465 -100.06403 -45.90255 -86.61718 -16.31279 29.17205 -73.53181 6.22437 6.72143 -16.92498 17.36936 7.07772 0.23109 86.37267 -5.63502 76.15071 8.88541 30.94468 99.47113 12.62387 14.08680 8.58485 22.94154 -13.06901 -20.96719 -28.67467 13.56781 74.69954 -7.72787 -0.00244 -0.03433 3.21202 -12.69241 -48.95007 -21.95187 21.40694 14.61425 27.92989 -7.66890 -46.85651 -6.83622 -0.02479 -0.04044 -7.53083 -33.28062 30.39392 
91.87578 94.71421 -64.65231 3.12638 -12.58706 14.86817 -2.68382 19.30057 0.03035 0.01969 -0.02319 -0.00807 -2.41887 7.19670 27.87018 8.96226 0.52060 -1.47967 -97.45478 -43.48228 -80.56568 -10.51062 27.27557 -73.78243 2.14649 8.33333 -23.93814 21.03880 4.39589 1.47839 81.69011 -9.40350 72.65164 7.90653 31.81131 100.64145 4.34042 18.56623 7.69463 22.85284 -12.97178 -22.95029 -30.27610 14.40924 74.14927 -5.76132 0.02739 -0.02847 -0.79468 -6.86856 -40.37562 -21.29408 23.06587 13.45547 25.84367 -7.13881 -45.66671 -2.04432 -0.06187 -0.03713 -9.42093 -25.19847 36.31884 
91.01986 94.63066 -65.26392 4.62032 -14.02019 16.25318 -1.64342 18.74260 -0.72371 0.01830 -0.02004 -0.01143 -3.47892 10.62813 29.01729 12.80679 -5.47526 -1.90716 -94.61148 -41.67162 -73.46831 -5.64443 26.49883 -74.48336 -1.23727 10.65600 -30.96364 26.20272 0.97537 2.72487 74.43371 -13.62627 67.71700 6.47635 32.76290 102.65331 -4.10517 23.58510 5.30537 22.58593 -13.07380 -24.55482 -32.05979 15.72827 72.10818 -3.72348 0.05591 -0.01960 -4.82118 -3.77574 -33.58407 -20.41321 24.34995 12.15386 23.57607 -6.00828 -43.93750 2.93920 -0.09849 -0.02627 -12.31879 -14.91328 41.47251 
90.11311 94.62663 -66.02263 5.95510 -15.43452 17.44324 0.58402 16.95031 -2.39082 0.06087 -0.05264 -0.05025 -4.95806 16.10485 29.48018 10.93367 -3.60568 -2.73826 -91.69519 -40.75169 -76.98461 -4.21920 28.05940 -76.05962 -4.85402 13.49384 -35.02019 34.97099 -3.97045 2.80111 60.05865 -17.48273 59.83050 3.70239 33.52471 106.21066 0.41556 11.13928 5.11252 21.85026 -13.40272 -24.78634 -34.58784 18.86928 65.71425 -5.35528 -0.05008 -0.11185 -3.04525 -5.98096 -29.78919 -18.75411 24.35499 10.40623 20.63196 -3.17561 -40.26940 8.61793 -0.22016 -0.00641 -10.84863 -3.20277 47.64688 
89.33312 94.70535 -66.85393 6.98724 -16.74222 18.31581 3.69315 14.17293 -4.88907 0.05394 -0.02522 -0.05997 -6.93678 22.95590 29.50334 8.10635 -0.61094 -3.03080 -87.63406 -41.22039 -81.65308 -5.67247 30.69250 -77.66807 -6.15282 16.16622 -34.98467 42.90602 -8.34577 1.24025 43.97738 -18.53916 53.54765 5.88172 34.60657 107.95911 -4.66318 11.42109 2.76818 20.69706 -13.76107 -23.67305 -35.65366 23.17021 57.24579 -7.12452 -0.11297 -0.03928 -3.01014 -6.84250 -21.93126 -16.58376 23.16781 8.30111 17.03533 1.09217 -34.65916 14.98599 -0.33922 0.05753 -17.81895 -5.44796 37.32869 
88.81735 94.84061 -67.68959 7.62839 -17.88333 18.77891 7.24096 11.15017 -7.96321 0.04148 0.00152 -0.07252 -9.48987 30.19345 29.20075 4.60839 2.55263 -2.75547 -82.64455 -43.58873 -86.80987 -9.62563 33.38775 -78.93046 -8.86815 18.65175 -34.03852 40.19762 -4.59729 0.19410 38.02937 -24.97748 52.06409 10.11857 35.58606 109.09604 -2.37266 5.83579 3.01330 19.16150 -13.98025 -21.31088 -34.65106 28.27256 46.72845 -9.05052 -0.14215 -0.04123 -12.13923 4.32456 -21.30555 -14.05553 20.73656 5.83279 12.54335 4.16691 -25.93793 10.36094 0.25994 0.06237 -9.34925 -1.59756 30.22175 
88.65457 94.98242 -68.54872 7.79241 -18.82542 18.73138 11.02069 8.17532 -11.48310 0.02849 0.03313 -0.08183 -12.66329 37.20498 28.68225 6.66415 2.24112 -11.54099 -77.41653 -56.88730 -84.03214 -15.56934 35.87526 -80.61659 0.06477 10.16153 -18.35003 36.83229 -0.61467 -0.00910 34.67973 -28.07331 51.44988 12.17988 36.59430 109.10650 -5.74394 6.83751 1.41308 17.22834 -13.98184 -17.87698 -31.09259 33.70808 34.08562 -11.09153 -0.16304 -0.05073 -5.74751 -5.47372 -10.27267 -11.56021 17.48524 3.12731 8.20467 8.48157 -15.18772 6.11565 0.35003 -0.00550 6.17128 -4.57935 4.46003 
88.82056 95.16943 -69.48696 6.70211 -19.30038 16.06692 15.26594 5.70448 -13.54713 0.00754 0.06216 -0.08608 -16.40649 43.18159 27.92803 1.67537 5.13518 -8.75946 -68.45682 -62.32424 -86.02535 -22.49342 38.31815 -83.12330 1.74846 10.00522 -13.08781 32.94348 3.22910 0.91763 33.25256 -29.14139 51.75115 13.16898 37.40354 108.47629 -4.57012 4.50411 1.99922 15.83482 -13.60711 -11.88518 -24.34704 38.64965 19.13750 -13.31680 -0.18614 -0.06436 -7.92743 -6.50424 -5.05102 -9.06168 12.78485 1.94377 3.94366 10.88084 -6.69235 11.54583 -0.38124 -0.16864 6.30207 -5.86254 -13.05885 
89.24504 95.36802 -70.54471 4.75536 -19.18873 11.28961 19.66077 4.45610 -14.46259 -0.01974 0.08094 -0.07959 -20.95196 46.91426 28.61185 -2.43552 6.64094 -5.12866 -61.70298 -66.85050 -85.19830 -26.40763 39.59898 -85.12122 8.98673 6.92413 -3.32256 28.84403 6.47927 3.18766 32.97899 -29.09440 52.67679 13.84493 37.84072 107.40461 -6.50417 5.59134 1.24254 14.64923 -12.96955 -4.46605 -14.85955 40.98111 4.42662 -15.47173 -0.14524 -0.05694 -4.84751 -10.55544 1.58708 -6.58764 7.22244 1.87792 1.11351 13.20821 -3.71308 6.95373 -0.11985 -0.02617 8.71165 -4.09163 -9.89276 
89.78516 95.56649 -71.73940 2.44540 -18.29034 4.90629 23.17092 4.09574 -13.40080 -0.03304 0.02907 0.02658 -24.63939 49.59907 29.39751 -5.17113 7.57738 -1.85137 -56.13128 -70.54076 -82.43097 -28.51433 40.53414 -86.62219 8.76308 7.58287 -2.88355 25.43159 9.01151 5.37899 33.15316 -28.45182 53.80107 14.52153 37.94725 106.15156 -5.48381 4.81239 1.64779 13.41335 -12.34127 3.66420 -4.27668 40.61644 -8.82543 -17.70065 -0.12466 -0.04314 -0.07650 -13.67559 -8.77041 -4.10442 1.03783 2.61791 -0.80542 16.80658 -4.35760 9.14333 0.03927 -0.11590 1.42232 -10.53003 -23.97147 
90.31683 95.72868 -73.06781 0.49641 -17.19166 -0.68232 25.57946 4.37995 -12.53442 -0.02730 0.02257 0.03155 -27.54948 51.29699 30.29140 -6.85230 8.03485 1.24372 -51.38365 -73.57568 -78.62817 -29.66319 41.20234 -87.61251 12.16114 6.36742 1.11378 22.65842 10.90747 7.68150 33.40869 -27.63213 54.86803 15.29423 37.73919 104.88541 -6.34349 5.78221 1.28152 11.43209 -11.78792 10.07742 5.84749 38.00292 -19.44826 -20.05701 -0.10819 -0.03451 0.07073 -15.06624 4.02061 -1.97413 -4.86667 2.11707 -2.21949 22.40978 -6.67858 5.84654 -0.26807 -0.07169 7.06093 -6.10263 -13.02461 
